HIERARCHY
ROOT Root
{
  OFFSET 0.0 0.0 0.0
  CHANNELS 6 Xposition Yposition Zposition Zrotation Yrotation Xrotation
  JOINT Hips
  {
    OFFSET 0.0 100.0 0.0
    CHANNELS 6 Xposition Yposition Zposition Zrotation Yrotation Xrotation
    JOINT Spine1
    {
      OFFSET -0.013727 5.003763 -0.053727
      CHANNELS 3 Zrotation Yrotation Xrotation
      JOINT Spine2
      {
        OFFSET -0.0 7.125301 -0.029825
        CHANNELS 3 Zrotation Yrotation Xrotation
        JOINT Chest
        {
          OFFSET -1e-06 7.550063 -0.815971
          CHANNELS 3 Zrotation Yrotation Xrotation
          JOINT Neck1
          {
            OFFSET -0.181677 26.311295 -0.553348
            CHANNELS 3 Zrotation Yrotation Xrotation
            JOINT Neck2
            {
              OFFSET -3e-06 7.709397 2.302585
              CHANNELS 3 Zrotation Yrotation Xrotation
              JOINT Head
              {
                OFFSET -5e-06 6.128916 1.953709
                CHANNELS 3 Zrotation Yrotation Xrotation
                JOINT HeadEnd
                {
                  OFFSET 0.003598 16.065403 -1.835379
                  CHANNELS 3 Zrotation Yrotation Xrotation
                }
                JOINT Jaw
                {
                  OFFSET 0.002637 0.475592 3.094941
                  CHANNELS 3 Zrotation Yrotation Xrotation
                }
                JOINT LeftEye
                {
                  OFFSET 3.206381 5.380205 7.586883
                  CHANNELS 3 Zrotation Yrotation Xrotation
                }
                JOINT RightEye
                {
                  OFFSET -3.22244 5.361869 7.558234
                  CHANNELS 3 Zrotation Yrotation Xrotation
                }
              }
            }
          }
          JOINT LeftShoulder
          {
            OFFSET 1.621652 23.237164 5.113413
            CHANNELS 3 Zrotation Yrotation Xrotation
            JOINT LeftArm
            {
              OFFSET 14.919846 2e-06 -5.502326
              CHANNELS 3 Zrotation Yrotation Xrotation
              JOINT LeftForeArm
              {
                OFFSET 28.739307 0.0 -0.002588
                CHANNELS 3 Zrotation Yrotation Xrotation
                JOINT LeftHand
                {
                  OFFSET 27.093981 -1e-06 0.002609
                  CHANNELS 3 Zrotation Yrotation Xrotation
                  JOINT LeftHandThumb1
                  {
                    OFFSET 2.276482 -1.392045 3.191413
                    CHANNELS 3 Zrotation Yrotation Xrotation
                    JOINT LeftHandThumb2
                    {
                      OFFSET 4.012836 -1.828127 1.641654
                      CHANNELS 3 Zrotation Yrotation Xrotation
                      JOINT LeftHandThumb3
                      {
                        OFFSET 2.798515 0.0 -3e-06
                        CHANNELS 3 Zrotation Yrotation Xrotation
                        JOINT LeftHandThumbEnd
                        {
                          OFFSET 3.180793 -4e-06 4e-06
                          CHANNELS 3 Zrotation Yrotation Xrotation
                        }
                      }
                    }
                  }
                  JOINT LeftHandIndex1
                  {
                    OFFSET 3.247555 -0.531998 2.296169
                    CHANNELS 3 Zrotation Yrotation Xrotation
                    JOINT LeftHandIndex2
                    {
                      OFFSET 6.364578 0.01206 0.1786
                      CHANNELS 3 Zrotation Yrotation Xrotation
                      JOINT LeftHandIndex3
                      {
                        OFFSET 3.662364 0.0 0.0
                        CHANNELS 3 Zrotation Yrotation Xrotation
                        JOINT LeftHandIndex4
                        {
                          OFFSET 2.329242 4e-06 4e-06
                          CHANNELS 3 Zrotation Yrotation Xrotation
                          JOINT LeftHandIndexEnd
                          {
                            OFFSET 2.759615 -0.180537 -0.113024
                            CHANNELS 3 Zrotation Yrotation Xrotation
                          }
                        }
                      }
                    }
                  }
                  JOINT LeftHandMiddle1
                  {
                    OFFSET 3.163495 0.240981 1.000332
                    CHANNELS 3 Zrotation Yrotation Xrotation
                    JOINT LeftHandMiddle2
                    {
                      OFFSET 6.19078 -0.259278 -1.002548
                      CHANNELS 3 Zrotation Yrotation Xrotation
                      JOINT LeftHandMiddle3
                      {
                        OFFSET 4.35652 -4e-06 -1e-06
                        CHANNELS 3 Zrotation Yrotation Xrotation
                        JOINT LeftHandMiddle4
                        {
                          OFFSET 2.996877 -8e-06 0.0
                          CHANNELS 3 Zrotation Yrotation Xrotation
                          JOINT LeftHandMiddleEnd
                          {
                            OFFSET 2.304287 -0.294569 -0.031741
                            CHANNELS 3 Zrotation Yrotation Xrotation
                          }
                        }
                      }
                    }
                  }
                  JOINT LeftHandRing1
                  {
                    OFFSET 2.882643 -0.053652 -0.322543
                    CHANNELS 3 Zrotation Yrotation Xrotation
                    JOINT LeftHandRing2
                    {
                      OFFSET 5.854541 -0.486202 -1.373841
                      CHANNELS 3 Zrotation Yrotation Xrotation
                      JOINT LeftHandRing3
                      {
                        OFFSET 4.350578 0.0 3e-06
                        CHANNELS 3 Zrotation Yrotation Xrotation
                        JOINT LeftHandRing4
                        {
                          OFFSET 2.651321 7e-06 2e-06
                          CHANNELS 3 Zrotation Yrotation Xrotation
                          JOINT LeftHandRingEnd
                          {
                            OFFSET 1.936105 0.077687 -7.1e-05
                            CHANNELS 3 Zrotation Yrotation Xrotation
                          }
                        }
                      }
                    }
                  }
                  JOINT LeftHandPinky1
                  {
                    OFFSET 2.8655 -0.310005 -1.600378
                    CHANNELS 3 Zrotation Yrotation Xrotation
                    JOINT LeftHandPinky2
                    {
                      OFFSET 5.087849 -1.331141 -1.77123
                      CHANNELS 3 Zrotation Yrotation Xrotation
                      JOINT LeftHandPinky3
                      {
                        OFFSET 3.070974 4e-06 0.0
                        CHANNELS 3 Zrotation Yrotation Xrotation
                        JOINT LeftHandPinky4
                        {
                          OFFSET 1.549672 0.0 1e-06
                          CHANNELS 3 Zrotation Yrotation Xrotation
                          JOINT LeftHandPinkyEnd
                          {
                            OFFSET 1.944893 -0.157802 0.057219
                            CHANNELS 3 Zrotation Yrotation Xrotation
                          }
                        }
                      }
                    }
                  }
                }
              }
            }
          }
          JOINT RightShoulder
          {
            OFFSET -1.380118 23.180309 5.214158
            CHANNELS 3 Zrotation Yrotation Xrotation
            JOINT RightArm
            {
              OFFSET -15.037196 1.2e-05 -5.545604
              CHANNELS 3 Zrotation Yrotation Xrotation
              JOINT RightForeArm
              {
                OFFSET -28.736639 2e-06 -0.002597
                CHANNELS 3 Zrotation Yrotation Xrotation
                JOINT RightHand
                {
                  OFFSET -27.133619 -0.0 0.002613
                  CHANNELS 3 Zrotation Yrotation Xrotation
                  JOINT RightHandThumb1
                  {
                    OFFSET -2.274032 -1.383988 3.163127
                    CHANNELS 3 Zrotation Yrotation Xrotation
                    JOINT RightHandThumb2
                    {
                      OFFSET -4.011429 -1.827466 1.640914
                      CHANNELS 3 Zrotation Yrotation Xrotation
                      JOINT RightHandThumb3
                      {
                        OFFSET -2.794935 -4e-06 -3e-06
                        CHANNELS 3 Zrotation Yrotation Xrotation
                        JOINT RightHandThumbEnd
                        {
                          OFFSET -3.183852 4e-06 1e-06
                          CHANNELS 3 Zrotation Yrotation Xrotation
                        }
                      }
                    }
                  }
                  JOINT RightHandIndex1
                  {
                    OFFSET -3.253266 -0.520057 2.282866
                    CHANNELS 3 Zrotation Yrotation Xrotation
                    JOINT RightHandIndex2
                    {
                      OFFSET -6.341917 0.012471 0.178266
                      CHANNELS 3 Zrotation Yrotation Xrotation
                      JOINT RightHandIndex3
                      {
                        OFFSET -3.654871 -8e-06 -0.0
                        CHANNELS 3 Zrotation Yrotation Xrotation
                        JOINT RightHandIndex4
                        {
                          OFFSET -2.327586 0.0 1e-06
                          CHANNELS 3 Zrotation Yrotation Xrotation
                          JOINT RightHandIndexEnd
                          {
                            OFFSET -2.76179 -0.180656 -0.113078
                            CHANNELS 3 Zrotation Yrotation Xrotation
                          }
                        }
                      }
                    }
                  }
                  JOINT RightHandMiddle1
                  {
                    OFFSET -3.168106 0.246593 1.00103
                    CHANNELS 3 Zrotation Yrotation Xrotation
                    JOINT RightHandMiddle2
                    {
                      OFFSET -6.180828 -0.258836 -1.000895
                      CHANNELS 3 Zrotation Yrotation Xrotation
                      JOINT RightHandMiddle3
                      {
                        OFFSET -4.348901 0.0 -0.0
                        CHANNELS 3 Zrotation Yrotation Xrotation
                        JOINT RightHandMiddle4
                        {
                          OFFSET -3.00024 -4e-06 -2e-06
                          CHANNELS 3 Zrotation Yrotation Xrotation
                          JOINT RightHandMiddleEnd
                          {
                            OFFSET -2.30252 -0.29437 -0.031706
                            CHANNELS 3 Zrotation Yrotation Xrotation
                          }
                        }
                      }
                    }
                  }
                  JOINT RightHandRing1
                  {
                    OFFSET -2.88569 -0.067952 -0.308858
                    CHANNELS 3 Zrotation Yrotation Xrotation
                    JOINT RightHandRing2
                    {
                      OFFSET -5.854198 -0.48613 -1.373731
                      CHANNELS 3 Zrotation Yrotation Xrotation
                      JOINT RightHandRing3
                      {
                        OFFSET -4.33881 -4e-06 -0.0
                        CHANNELS 3 Zrotation Yrotation Xrotation
                        JOINT RightHandRing4
                        {
                          OFFSET -2.654903 -4e-06 4e-06
                          CHANNELS 3 Zrotation Yrotation Xrotation
                          JOINT RightHandRingEnd
                          {
                            OFFSET -1.933568 0.077527 -5.2e-05
                            CHANNELS 3 Zrotation Yrotation Xrotation
                          }
                        }
                      }
                    }
                  }
                  JOINT RightHandPinky1
                  {
                    OFFSET -2.866425 -0.342796 -1.584145
                    CHANNELS 3 Zrotation Yrotation Xrotation
                    JOINT RightHandPinky2
                    {
                      OFFSET -5.091371 -1.332055 -1.772385
                      CHANNELS 3 Zrotation Yrotation Xrotation
                      JOINT RightHandPinky3
                      {
                        OFFSET -3.062664 -4e-06 1e-06
                        CHANNELS 3 Zrotation Yrotation Xrotation
                        JOINT RightHandPinky4
                        {
                          OFFSET -1.546529 4e-06 -2e-06
                          CHANNELS 3 Zrotation Yrotation Xrotation
                          JOINT RightHandPinkyEnd
                          {
                            OFFSET -1.945119 -0.157718 0.057211
                            CHANNELS 3 Zrotation Yrotation Xrotation
                          }
                        }
                      }
                    }
                  }
                }
              }
            }
          }
        }
      }
    }
    JOINT LeftLeg
    {
      OFFSET 10.043214 -8.434526 2.595655
      CHANNELS 3 Zrotation Yrotation Xrotation
      JOINT LeftShin
      {
        OFFSET -1e-06 -43.221752 -0.802913
        CHANNELS 3 Zrotation Yrotation Xrotation
        JOINT LeftFoot
        {
          OFFSET 1e-06 -42.155094 -3.481523
          CHANNELS 3 Zrotation Yrotation Xrotation
          JOINT LeftToeBase
          {
            OFFSET 0.0 -5.059472 13.231529
            CHANNELS 3 Zrotation Yrotation Xrotation
            JOINT LeftToeEnd
            {
              OFFSET -0.009607 -1.647619 6.513017
              CHANNELS 3 Zrotation Yrotation Xrotation
            }
          }
        }
      }
    }
    JOINT RightLeg
    {
      OFFSET -10.047278 -8.29526 2.620317
      CHANNELS 3 Zrotation Yrotation Xrotation
      JOINT RightShin
      {
        OFFSET 1e-06 -43.362206 -0.805556
        CHANNELS 3 Zrotation Yrotation Xrotation
        JOINT RightFoot
        {
          OFFSET 2e-06 -42.117393 -3.478398
          CHANNELS 3 Zrotation Yrotation Xrotation
          JOINT RightToeBase
          {
            OFFSET -0.0 -5.079609 13.284196
            CHANNELS 3 Zrotation Yrotation Xrotation
            JOINT RightToeEnd
            {
              OFFSET 0.009532 -1.634378 6.460591
              CHANNELS 3 Zrotation Yrotation Xrotation
            }
          }
        }
      }
    }
  }
}
MOTION
Frames: 5
Frame Time: 0.03333333333333333
0.243625 0.0 -0.003308 0.0 -0.276073 0.0 0.0 99.114159 0.0 0.437738 0.008845 -1.164012 0.860622 -0.096592 -3.395459 -0.339627 -0.253564 -6.288835 -1.490798 -2.147462 13.224033 -2.994507 4.404064 6.715696 -0.141704 2.07008 -3.753375 -0.050617 1.438582 -8.742263 7.7e-05 -2.2e-05 6e-06 0.01863 -0.040397 0.005587 0.673465 -3.76762 -10.565923 -0.639057 3.695033 -10.550203 -21.676876 -4.451355 16.923227 -56.905075 -5.135707 2.804694 0.20685 -27.833542 -0.164891 -5.465048 -2.450184 -2.74343 -5.882109 9.861286 0.702591 -10.936877 -0.360575 7.156206 1e-06 8.774829 0.0 -16.060598 17.85738 6.062498 -1.844033 2.498505 -2.507279 -10.163604 4.678946 4.621109 -20.976038 -5e-06 1e-06 -21.226301 2.451696 -3.594002 -0.0 -6e-06 -1e-06 -1.362682 2.240799 -0.746323 -21.334925 0.58491 3.008323 -13.821218 -3e-06 0.0 -23.88718 -0.24908 -0.839483 -60.348232 2.632801 -1.168683 -0.294024 1.679687 0.833255 -14.218215 0.093215 1.300581 -34.212067 -0.287568 0.967169 -20.033222 0.964535 1.212845 -1e-06 -0.0 -1e-06 -3.44039 0.788233 0.501656 -15.928192 -3.16731 2.999705 -6.338829 -1e-06 0.0 -18.123457 3.648182 -4.905672 -3e-06 0.0 -2e-06 21.655807 7.646267 19.653601 54.304245 11.515935 17.31629 -0.028498 29.033865 0.092936 4.832121 0.896346 -4.824476 2.243543 -5.255041 -3.18016 14.282896 -0.826594 6.952506 -2e-06 -12.690608 -1e-06 16.106855 -17.700911 2.462415 1.665667 -1.955922 -2.8783 4.727801 -4.170588 4.993927 11.020531 4e-06 -1e-06 12.109058 -3.735716 -2.866786 -1e-06 -1e-06 0.0 1.291986 -1.92855 -1.49809 14.800136 0.567469 3.865608 14.24258 -1.341736 -6.660663 19.631975 0.143927 -0.648245 49.358654 -0.602098 -6.553253 0.353029 -1.511151 -0.031941 20.222801 3.684312 2.316632 18.787287 7e-06 -2e-06 10.751634 -0.479868 1.397908 3e-06 0.0 0.0 3.273808 0.305947 -0.580113 21.486828 11.830379 2.266135 8.162933 3e-06 -1e-06 18.399096 -3.798984 -4.940578 4e-06 0.0 -2e-06 5.521949 12.357679 1.221185 -0.000893 -0.166424 11.041499 -7.368922 2.397782 -10.013503 1.651427 -1.9904 -1.975918 0.0 -0.0 2e-06 -7.342139 -6.060314 -0.565157 -0.054649 0.07324 12.036285 9.293461 -4.864801 -9.758682 -1.417454 0.874129 -1.652554 0.0 0.0 -1e-06 
0.236909 0.0 0.017078 0.0 -0.275549 0.0 0.0 99.112473 0.0 0.443419 0.008992 -1.168071 0.89571 -0.090587 -3.425558 -0.327512 -0.263296 -6.300801 -1.500766 -2.140341 13.226049 -3.495299 4.632885 6.749352 -0.136839 2.130164 -3.749151 -0.245769 1.643045 -8.491071 7.7e-05 -2.2e-05 6e-06 0.020967 -0.028257 0.009767 0.679596 -3.754981 -10.564823 -0.641128 3.707265 -10.550755 -21.770231 -4.419318 16.934769 -56.887287 -5.107761 2.568738 0.188909 -27.753614 -0.144085 -5.524549 -2.395156 -2.681118 -5.882108 9.861286 0.70259 -10.936875 -0.360575 7.156208 1e-06 8.774826 -2e-06 -16.064381 17.864346 6.082765 -1.844033 2.498504 -2.507279 -10.163603 4.678946 4.621109 -20.976034 -5e-06 1e-06 -21.226295 2.451696 -3.594002 -0.0 -6e-06 1e-06 -1.362682 2.2408 -0.746323 -21.334921 0.584908 3.008323 -13.821218 -4e-06 0.0 -23.887178 -0.249081 -0.839484 -60.372314 2.637926 -1.133037 -0.294025 1.679688 0.833257 -14.218214 0.093215 1.300578 -34.212063 -0.287564 0.967168 -20.033218 0.964535 1.212842 -0.0 -0.0 -1e-06 -3.440389 0.788233 0.501655 -15.928191 -3.167312 2.999707 -6.338828 -1e-06 1e-06 -18.123453 3.648183 -4.905673 -1e-06 1e-06 -2e-06 21.599178 7.642813 19.648645 54.370846 11.578332 17.328819 -0.042457 28.98262 0.100886 4.801661 0.845322 -4.89678 2.243541 -5.255035 -3.180159 14.282887 -0.826591 6.952499 -3e-06 -12.690601 -3e-06 16.101416 -17.71843 2.471742 1.665666 -1.955922 -2.878299 4.727797 -4.170587 4.993923 11.020523 4e-06 -1e-06 12.10905 -3.735714 -2.866785 -1e-06 -0.0 0.0 1.291986 -1.92855 -1.498088 14.800125 0.567469 3.865606 14.242569 -1.341736 -6.660658 19.631968 0.143929 -0.648244 49.358734 -0.612351 -6.538316 0.353029 -1.511151 -0.031941 20.222788 3.684312 2.316629 18.787273 7e-06 0.0 10.751626 -0.479868 1.397905 2e-06 -0.0 -0.0 3.273807 0.305947 -0.58011 21.486809 11.830373 2.266131 8.162923 3e-06 0.0 18.399076 -3.798983 -4.940576 3e-06 1e-06 -1e-06 5.528756 12.351572 1.25931 0.002133 -0.170232 11.009615 -7.388146 2.387112 -10.007517 1.651814 -1.996519 -2.011168 0.0 0.0 2e-06 -7.394829 -5.98447 -0.490547 -0.052163 0.068316 12.04073 9.337064 -4.902316 -9.755624 -1.41827 0.886716 -1.640306 0.0 0.0 -1e-06 
0.231073 0.0 0.034909 0.0 -0.280023 0.0 0.0 99.110405 0.0 0.44438 0.009021 -1.16944 0.923028 -0.081854 -3.447695 -0.313372 -0.286065 -6.307851 -1.496035 -2.133368 13.22471 -3.902383 4.806396 6.764632 -0.123765 2.198026 -3.738247 -0.395288 1.856078 -8.325532 7.7e-05 -2.2e-05 6e-06 0.022756 -0.014 0.014163 0.685958 -3.741251 -10.566518 -0.644436 3.722603 -10.552377 -21.84881 -4.402514 16.947802 -56.91729 -5.049572 2.293315 0.169085 -27.655304 -0.12525 -5.598563 -2.332252 -2.573318 -5.882109 9.86129 0.702589 -10.936872 -0.360573 7.156208 -2e-06 8.774828 -1e-06 -16.076368 17.868601 6.075258 -1.844033 2.498507 -2.507278 -10.163602 4.678947 4.621109 -20.976028 -1e-06 2e-06 -21.226292 2.4517 -3.594005 -0.0 -6e-06 -1e-06 -1.362682 2.2408 -0.746323 -21.334915 0.584913 3.008322 -13.821215 -1e-06 2e-06 -23.887171 -0.249076 -0.839483 -60.380192 2.637383 -1.123026 -0.294025 1.679688 0.833256 -14.21821 0.093219 1.300581 -34.212051 -0.287559 0.967167 -20.033218 0.964538 1.212841 -1e-06 -0.0 -1e-06 -3.440389 0.788233 0.501656 -15.928189 -3.167309 2.999708 -6.338827 -0.0 2e-06 -18.123447 3.648186 -4.905672 -3e-06 0.0 -3e-06 21.54818 7.637351 19.661163 54.471222 11.651916 17.260246 -0.026965 28.952585 0.116998 4.7488 0.797709 -4.945803 2.243543 -5.255038 -3.180159 14.282898 -0.826598 6.952504 1e-06 -12.690608 -3e-06 16.091602 -17.729767 2.479678 1.665667 -1.955922 -2.878299 4.727802 -4.170589 4.993923 11.020533 1e-06 -1e-06 12.109059 -3.735719 -2.866785 -1e-06 -0.0 0.0 1.291986 -1.928552 -1.498088 14.800136 0.567465 3.865607 14.242582 -1.341738 -6.660659 19.631977 0.143922 -0.648246 49.376694 -0.61722 -6.530012 0.35303 -1.511152 -0.031938 20.222801 3.684307 2.316631 18.787287 2e-06 -4e-06 10.751634 -0.479871 1.397904 1e-06 1e-06 0.0 3.273808 0.305947 -0.580111 21.486818 11.830374 2.266132 8.162929 1e-06 -3e-06 18.399094 -3.798988 -4.940582 4e-06 1e-06 -1e-06 5.537692 12.355298 1.286126 0.002433 -0.172029 10.995338 -7.39698 2.375083 -10.010982 1.650888 -2.005774 -2.032677 -0.0 0.0 2e-06 -7.392154 -5.956706 -0.480799 -0.048534 0.064679 12.046545 9.320886 -4.918819 -9.772773 -1.418303 0.893305 -1.640053 0.0 0.0 -1e-06 
0.224761 0.0 0.049181 0.0 -0.297315 0.0 0.0 99.10878 0.0 0.439621 0.008792 -1.152388 0.942136 -0.079186 -3.470121 -0.299164 -0.301219 -6.313917 -1.48202 -2.124931 13.223392 -4.174018 4.894353 6.740885 -0.089554 2.290778 -3.732849 -0.507392 2.030789 -8.253514 7.7e-05 -2.2e-05 6e-06 0.025146 -0.002175 0.019099 0.690815 -3.730285 -10.569057 -0.644848 3.735579 -10.554436 -21.917423 -4.393002 16.947206 -56.980778 -4.952697 1.990788 0.153295 -27.576601 -0.110141 -5.681212 -2.270737 -2.380552 -5.882107 9.861286 0.702589 -10.936873 -0.360575 7.156206 -1e-06 8.774826 -0.0 -16.105413 17.863071 6.040738 -1.844033 2.498504 -2.507277 -10.163599 4.678946 4.621107 -20.976023 -2e-06 2e-06 -21.226286 2.451699 -3.594001 -0.0 -7e-06 -1e-06 -1.362682 2.240798 -0.746324 -21.334913 0.58491 3.008323 -13.821215 -1e-06 0.0 -23.887171 -0.249079 -0.839483 -60.378765 2.632221 -1.146744 -0.294025 1.679688 0.833256 -14.21821 0.093215 1.300579 -34.212051 -0.287564 0.967168 -20.033215 0.964536 1.212843 0.0 -1e-06 -1e-06 -3.440389 0.788235 0.501655 -15.928187 -3.167308 2.999707 -6.338827 0.0 2e-06 -18.123446 3.648183 -4.905671 -1e-06 0.0 -1e-06 21.524759 7.626472 19.672405 54.570095 11.70661 17.149561 0.011276 28.961792 0.128371 4.735703 0.781124 -4.950109 2.243542 -5.255038 -3.180158 14.282892 -0.826596 6.952503 -1e-06 -12.690606 2e-06 16.094213 -17.73983 2.485286 1.665666 -1.955922 -2.8783 4.7278 -4.170588 4.993926 11.020526 1e-06 2e-06 12.109052 -3.735719 -2.866784 -1e-06 -1e-06 0.0 1.291986 -1.92855 -1.498089 14.800129 0.567467 3.865607 14.242571 -1.341739 -6.660658 19.631969 0.143924 -0.648246 49.399578 -0.619129 -6.521891 0.353029 -1.511151 -0.031939 20.222794 3.684308 2.31663 18.787273 2e-06 -1e-06 10.75163 -0.479869 1.397906 3e-06 1e-06 0.0 3.273807 0.305946 -0.580112 21.486813 11.830373 2.266132 8.162927 1e-06 -2e-06 18.399086 -3.798987 -4.940577 5e-06 1e-06 -2e-06 5.552981 12.386817 1.285054 0.00124 -0.166453 11.001611 -7.411118 2.327892 -10.019632 1.649539 -2.009396 -2.024521 -0.0 0.0 2e-06 -7.318027 -5.960117 -0.55362 -0.044068 0.060891 12.059734 9.25482 -4.915486 -9.822693 -1.417869 0.898466 -1.633886 0.0 -0.0 -1e-06 
0.215321 0.0 0.05498 0.0 -0.314374 0.0 0.0 99.10173 0.0 0.430206 0.008359 -1.119893 0.954623 -0.08313 -3.487713 -0.290169 -0.312249 -6.324966 -1.458794 -2.11482 13.230762 -4.282925 4.899736 6.664499 -0.050013 2.384537 -3.73667 -0.571312 2.149277 -8.251005 7.7e-05 -2.2e-05 6e-06 0.027828 0.006708 0.023344 0.693548 -3.72172 -10.570222 -0.642299 3.744895 -10.555902 -21.966383 -4.39487 16.958229 -57.062492 -4.847157 1.681856 0.125935 -27.537096 -0.090877 -5.726784 -2.21321 -2.208279 -5.882114 9.861297 0.70259 -10.936883 -0.360573 7.156211 0.0 8.774836 0.0 -16.130625 17.850216 6.014224 -1.844035 2.498508 -2.507278 -10.163611 4.678952 4.621111 -20.976048 -2e-06 0.0 -21.226315 2.4517 -3.594002 -1e-06 -6e-06 0.0 -1.362683 2.240801 -0.746323 -21.334938 0.584911 3.008324 -13.821231 -1e-06 1e-06 -23.887196 -0.249078 -0.839486 -60.372665 2.632558 -1.164265 -0.294025 1.679688 0.833256 -14.218224 0.093214 1.30058 -34.212082 -0.287564 0.967169 -20.033236 0.964536 1.21284 1e-06 -1e-06 -1e-06 -3.440392 0.788234 0.501656 -15.928203 -3.167312 2.999709 -6.338834 -1e-06 0.0 -18.123468 3.648187 -4.905679 -1e-06 0.0 -1e-06 21.537281 7.614599 19.652065 54.659275 11.719831 17.05056 0.047296 29.012533 0.133766 4.768494 0.786318 -4.901101 2.243543 -5.255041 -3.180157 14.282896 -0.826597 6.952501 0.0 -12.690612 -1e-06 16.100994 -17.759729 2.492106 1.665668 -1.955923 -2.878299 4.7278 -4.170591 4.993924 11.020528 0.0 -3e-06 12.109057 -3.735719 -2.866789 0.0 -1e-06 1e-06 1.291986 -1.928551 -1.498091 14.800131 0.567466 3.865607 14.242577 -1.34174 -6.660664 19.631971 0.143926 -0.648247 49.411858 -0.622005 -6.513129 0.353029 -1.511153 -0.031941 20.222801 3.68431 2.316631 18.787281 4e-06 -3e-06 10.751631 -0.47987 1.397905 1e-06 1e-06 0.0 3.273808 0.305947 -0.580111 21.486816 11.830381 2.26613 8.16293 3e-06 -2e-06 18.39909 -3.798987 -4.940583 3e-06 -0.0 -2e-06 5.569035 12.413505 1.220998 0.00171 -0.152254 11.097045 -7.428889 2.292286 -10.066384 1.647646 -2.01293 -2.009671 0.0 -0.0 2e-06 -7.305165 -5.969063 -0.618271 -0.038284 0.058764 12.141389 9.293386 -4.868467 -9.864755 -1.416457 0.898935 -1.620735 0.0 0.0 -1e-06 
